<?xml version="1.0" encoding="UTF-8" standalone="no"?>
<!DOCTYPE svg PUBLIC "-//W3C//DTD SVG 1.1//EN" "http://www.w3.org/Graphics/SVG/1.1/DTD/svg11.dtd">
<svg width="100%" height="100%" viewBox="0 0 671 607" version="1.1" xmlns="http://www.w3.org/2000/svg" xmlns:xlink="http://www.w3.org/1999/xlink" xml:space="preserve" xmlns:serif="http://www.serif.com/" style="fill-rule:evenodd;clip-rule:evenodd;stroke-linejoin:round;stroke-miterlimit:1.41421;">
    <g transform="matrix(1,0,0,1,-732.251,-902.521)">
        <g transform="matrix(4.16667,0,0,4.16667,0,0)">
            <g transform="matrix(1,0,0,-1,0,-97.8066)">
                <path d="M202.284,-362.852C200.658,-362.254 199.006,-361.655 197.309,-361.058C199.134,-360.962 200.915,-360.849 202.652,-360.725C205.947,-343.21 217.262,-328.537 232.644,-320.654C231.951,-320.555 231.284,-320.449 230.553,-320.359C227.96,-320.044 225.304,-319.885 222.587,-319.885C218.098,-319.885 213.561,-320.227 208.981,-320.906C204.402,-321.589 200.24,-322.478 196.5,-323.579C192.755,-324.68 189.997,-325.774 188.222,-326.855C186.654,-327.764 185.261,-329.034 184.044,-330.672C182.824,-332.311 181.885,-333.932 181.222,-335.537C180.559,-337.142 180.23,-338.24 180.23,-338.83C180.23,-339.632 180.456,-340.276 180.91,-340.763C181.361,-341.254 181.988,-341.496 182.791,-341.496C183.381,-341.496 184.435,-341.46 185.951,-341.383C187.463,-341.307 189.336,-341.231 191.565,-341.155C195.498,-340.982 197.892,-340.87 198.745,-340.816C199.597,-340.763 200.024,-340.564 200.024,-340.216C200.024,-339.904 199.703,-339.706 199.06,-339.619C198.416,-339.533 197.511,-339.49 196.344,-339.49C195.176,-339.49 194.208,-339.42 193.442,-339.281C192.676,-339.142 192.294,-338.883 192.294,-338.499C192.294,-338.084 192.606,-337.762 193.233,-337.537C193.86,-337.311 194.947,-337.053 196.5,-336.757C198.048,-336.462 199.971,-336.087 202.273,-335.637C204.428,-335.152 208.242,-334.549 213.71,-333.819C211.899,-336.213 209.383,-339.563 206.163,-343.864C202.939,-348.165 199.955,-352.171 197.206,-355.882C193.827,-356.299 191.771,-356.562 191.041,-356.667C190.312,-356.774 189.615,-356.973 188.952,-357.268C188.289,-357.566 187.715,-357.968 187.228,-358.472C186.74,-358.976 186.01,-359.96 185.036,-361.423C183.921,-363.098 183.311,-364.328 183.208,-365.11C183.102,-365.896 183.294,-366.427 183.782,-366.706C184.27,-366.984 185.54,-367.545 187.596,-368.38C183.901,-373.331 181.003,-377.629 178.897,-381.271C176.791,-384.911 175.74,-387.113 175.74,-387.883C175.74,-389.242 176.625,-389.922 178.403,-389.922C179.026,-389.922 180.064,-389.388 181.51,-388.323C182.956,-387.253 183.888,-385.933 184.306,-384.361C184.896,-382.159 187.698,-377.612 192.712,-370.722L201.802,-375.174C201.716,-373.892 201.656,-372.602 201.656,-371.299C201.656,-368.429 201.873,-365.608 202.284,-362.852Z" style="fill:rgb(230,158,54);fill-rule:nonzero;"/>
            </g>
        </g>
        <g transform="matrix(4.16667,0,0,4.16667,0,0)">
            <g transform="matrix(1,0,0,-1,0,-127.095)">
                <path d="M225.569,-359.864C225.585,-360.073 225.595,-360.368 225.595,-360.75C225.595,-361.725 225.29,-362.842 224.68,-364.109C224.07,-365.375 223.284,-366.679 222.329,-368.012C221.371,-369.349 219.941,-371.258 218.044,-373.739C216.147,-376.22 214.396,-378.501 212.798,-380.583C220.107,-379.197 226.348,-377.861 231.521,-376.574C236.691,-375.291 240.949,-373.998 244.292,-372.698C247.634,-371.398 250.148,-370.025 251.839,-368.586C253.527,-367.146 254.373,-365.644 254.373,-364.083C254.373,-362.348 252.605,-360.985 249.07,-359.997C245.535,-359.009 241.211,-358.511 236.091,-358.511C235.046,-358.511 233.942,-358.538 232.775,-358.591C231.607,-358.644 230.215,-358.747 228.597,-358.902C226.978,-359.059 225.94,-359.155 225.489,-359.187C225.522,-359.433 225.549,-359.659 225.569,-359.864Z" style="fill:rgb(230,158,54);fill-rule:nonzero;"/>
            </g>
        </g>
        <g transform="matrix(4.16667,0,0,4.16667,0,0)">
            <g transform="matrix(1,0,0,-1,0,-4.2539)">
                <path d="M291.013,-320.972C287.551,-319.731 283.94,-318.807 280.179,-318.199C269,-316.545 258.568,-312.93 248.885,-307.359C248.056,-306.918 247.17,-305.979 246.229,-304.544C245.287,-303.111 244.819,-301.729 244.819,-300.401C244.819,-299.475 244.877,-298.548 244.935,-297.619C243.648,-296.953 241.987,-296.06 239.904,-294.91C237.537,-293.597 235.385,-292.427 233.455,-291.398C231.521,-290.367 228.467,-288.838 224.289,-286.812L213.687,-281.621C215.682,-311.229 240.314,-334.633 270.428,-334.633C281.476,-334.633 291.782,-331.473 300.511,-326.022C300.454,-325.979 300.408,-325.935 300.352,-325.893C297.586,-323.854 294.472,-322.212 291.013,-320.972Z" style="fill:rgb(0,131,184);fill-rule:nonzero;"/>
            </g>
        </g>
        <g transform="matrix(4.16667,0,0,4.16667,0,0)">
            <g transform="matrix(1,0,0,-1,0,-23.8857)">
                <path d="M315.324,-305.247C312.754,-306.573 310.559,-307.847 308.735,-309.063C306.911,-310.28 305.777,-310.888 305.335,-310.888C304.782,-310.888 304.506,-310.669 304.506,-310.225C304.506,-309.282 305.481,-307.86 307.432,-305.95C309.381,-304.043 311.782,-302.368 314.641,-300.93C317.665,-299.331 319.181,-298.313 319.181,-297.868C319.181,-297.152 317.493,-296.794 314.124,-296.794C303.903,-296.794 294.455,-297.706 285.78,-299.526C277.105,-301.347 270.267,-303.745 265.267,-306.723C260.266,-309.7 257.765,-312.734 257.765,-315.822C257.765,-317.752 258.803,-319.118 260.879,-319.918C262.955,-320.72 267.535,-322.057 274.618,-323.93C281.701,-325.807 288.039,-327.956 293.629,-330.384C300.181,-333.193 305.317,-336.097 309.091,-339.092C319.637,-329.313 326.475,-315.593 327.242,-300.27C326.387,-300.631 325.468,-301.009 324.403,-301.427C320.921,-302.647 317.894,-303.92 315.324,-305.247Z" style="fill:rgb(0,131,184);fill-rule:nonzero;"/>
            </g>
        </g>
        <g transform="matrix(4.16667,0,0,4.16667,0,0)">
            <g transform="matrix(1,0,0,-1,0,-115.307)">
                <path d="M275.659,-373.24C286.311,-369.784 298.305,-368.053 311.636,-368.053C316.254,-368.053 320.243,-368.267 323.643,-368.678C315.513,-347.194 294.76,-331.912 270.428,-331.912C261.096,-331.912 252.299,-334.174 244.529,-338.155C246.295,-338.41 247.979,-338.687 249.495,-339.014C251.604,-339.468 253.269,-339.922 254.492,-340.373C257.672,-341.418 260.11,-343 261.804,-345.122C263.499,-347.244 264.348,-349.572 264.348,-352.109C264.348,-354.58 263.92,-356.987 263.064,-359.335C262.209,-361.683 260.896,-363.858 259.132,-365.858C257.367,-367.857 255.245,-369.482 252.765,-370.732C250.735,-371.771 247.667,-372.825 243.559,-373.896C239.45,-374.967 234.489,-375.916 228.676,-376.745C224.34,-377.363 219.626,-377.855 214.538,-378.226C214.405,-378.93 214.275,-379.638 214.169,-380.353C217.678,-381.643 221.032,-382.939 224.209,-384.239C228.858,-386.143 232.775,-387.834 235.961,-389.316C239.145,-390.802 241.646,-392.012 243.456,-392.955C245.451,-393.996 246.88,-394.804 247.78,-395.395C249.331,-391.198 251.246,-387.852 253.534,-385.37C257.629,-380.741 265.004,-376.698 275.659,-373.24Z" style="fill:rgb(0,131,184);fill-rule:nonzero;"/>
            </g>
        </g>
        <g transform="matrix(4.16667,0,0,4.16667,0,0)">
            <g transform="matrix(1,0,0,-1,0,65.2529)">
                <path d="M306.579,-263.254C302.593,-266.563 298.166,-269.156 293.298,-271.03C288.43,-272.907 282.813,-274.204 276.452,-274.92C270.088,-275.637 261.927,-275.995 251.969,-275.995C240.515,-275.995 234.788,-275.418 234.788,-274.257C234.788,-273.819 234.993,-273.475 235.408,-273.226C235.822,-272.977 236.376,-272.729 237.066,-272.479C237.756,-272.234 238.654,-271.89 239.762,-271.445C239.981,-271.335 240.203,-271.226 240.425,-271.113C240.644,-271.001 240.84,-270.861 241.005,-270.695C241.171,-270.529 241.254,-270.36 241.254,-270.191C241.254,-269.528 240.146,-269.267 237.938,-269.405C235.726,-269.545 233.432,-270.085 231.057,-271.03C228.348,-272.244 226,-274.595 224.01,-278.091C222.021,-281.586 221.026,-284.159 221.026,-285.811C221.026,-289.498 223.967,-292.25 229.853,-294.071C235.739,-295.885 243.522,-296.794 253.206,-296.794C258.462,-296.794 263.983,-296.452 269.767,-295.778C275.55,-295.099 280.916,-294.164 285.87,-292.974C290.821,-291.779 294.93,-290.506 298.196,-289.153C301.993,-287.438 305.352,-285.26 308.271,-282.607C311.188,-279.954 313.404,-277.039 314.919,-273.862C316.432,-270.686 317.191,-267.521 317.191,-264.371C317.191,-259.785 315.261,-255.64 311.404,-251.939C310.708,-251.272 309.922,-250.611 309.091,-249.953C306.452,-252.4 303.58,-254.599 300.511,-256.516C303.192,-258.525 305.221,-260.769 306.579,-263.254Z" style="fill:rgb(230,158,54);fill-rule:nonzero;"/>
            </g>
        </g>
        <g transform="matrix(4.16667,0,0,4.16667,0,0)">
            <g transform="matrix(1,0,0,-1,0,-37.25)">
                <path d="M247.95,-331.912C248.924,-331.912 249.558,-331.325 249.856,-330.158C250.151,-328.987 250.301,-327.18 250.301,-324.739C250.301,-322.577 250.178,-321.021 249.933,-320.08C249.687,-319.139 249.183,-318.372 248.417,-317.778C248.253,-317.651 248.027,-317.498 247.78,-317.338C247.606,-317.811 247.432,-318.288 247.267,-318.783C245.947,-322.738 245.187,-326.683 244.935,-330.615C245.112,-330.707 245.305,-330.808 245.466,-330.891C246.806,-331.57 247.634,-331.912 247.95,-331.912Z" style="fill:white;fill-rule:nonzero;"/>
            </g>
        </g>
        <g transform="matrix(4.16667,0,0,4.16667,0,0)">
            <g transform="matrix(1,0,0,-1,0,-82.2451)">
                <path d="M330.081,-336.828C328.26,-336.314 326.102,-335.915 323.643,-335.616C326.008,-341.874 327.315,-348.652 327.315,-355.737C327.315,-356.707 327.29,-357.67 327.242,-358.629C329.006,-357.883 330.366,-357.246 331.241,-356.738C332.542,-355.989 333.755,-354.47 334.889,-352.188C336.023,-349.907 336.59,-346.681 336.59,-342.505C336.59,-339.945 334.418,-338.055 330.081,-336.828Z" style="fill:white;fill-rule:nonzero;"/>
            </g>
        </g>
        <g transform="matrix(4.16667,0,0,4.16667,0,0)">
            <g transform="matrix(1,0,0,-1,0,-37.4854)">
                <path d="M323.643,-290.856C320.243,-290.445 316.254,-290.231 311.636,-290.231C298.305,-290.231 286.311,-291.962 275.659,-295.418C265.004,-298.876 257.629,-302.919 253.534,-307.548C251.246,-310.03 249.331,-313.376 247.78,-317.573C248.027,-317.733 248.253,-317.887 248.417,-318.014C249.183,-318.607 249.687,-319.374 249.933,-320.315C250.178,-321.257 250.301,-322.813 250.301,-324.975C250.301,-327.415 250.151,-329.223 249.856,-330.394C249.558,-331.561 248.924,-332.147 247.95,-332.147C247.634,-332.147 246.806,-331.806 245.466,-331.126C245.305,-331.043 245.112,-330.942 244.935,-330.851C244.877,-331.779 244.819,-332.706 244.819,-333.633C244.819,-334.96 245.287,-336.343 246.229,-337.775C247.17,-339.211 248.056,-340.149 248.885,-340.591C258.568,-346.161 269,-349.776 280.179,-351.431C283.94,-352.038 287.551,-352.963 291.013,-354.203C294.472,-355.443 297.586,-357.085 300.352,-359.124C300.408,-359.166 300.454,-359.211 300.511,-359.254C303.58,-357.337 306.452,-355.139 309.091,-352.691C305.317,-349.696 300.181,-346.793 293.629,-343.983C288.039,-341.556 281.701,-339.406 274.618,-337.529C267.535,-335.656 262.955,-334.319 260.879,-333.518C258.803,-332.718 257.765,-331.352 257.765,-329.422C257.765,-326.334 260.266,-323.3 265.267,-320.322C270.267,-317.345 277.105,-314.946 285.78,-313.126C294.455,-311.306 303.903,-310.394 314.124,-310.394C317.493,-310.394 319.181,-310.752 319.181,-311.468C319.181,-311.912 317.665,-312.931 314.641,-314.529C311.782,-315.968 309.381,-317.643 307.432,-319.55C305.481,-321.46 304.506,-322.882 304.506,-323.824C304.506,-324.269 304.782,-324.487 305.335,-324.487C305.777,-324.487 306.911,-323.88 308.735,-322.663C310.559,-321.446 312.754,-320.173 315.324,-318.847C317.894,-317.52 320.921,-316.247 324.403,-315.026C325.468,-314.608 326.387,-314.23 327.242,-313.869C327.29,-312.91 327.315,-311.947 327.315,-310.978C327.315,-303.892 326.008,-297.114 323.643,-290.856Z" style="fill:white;fill-rule:nonzero;"/>
            </g>
        </g>
    </g>
</svg>
